<svg width="165" height="26" viewBox="0 0 165 26" fill="none" xmlns="http://www.w3.org/2000/svg">
<path d="M26.7461 0.310062C26.8605 -0.0603326 27.3781 -0.119196 27.5127 0.244323C27.9589 1.44949 28.2027 2.75343 28.2027 4.11454C28.2027 4.70772 28.1564 5.29004 28.0672 5.85807C30.0511 7.2594 31.3474 9.5755 31.3474 12.1955C31.3474 12.6698 31.3049 13.1343 31.2235 13.5851C30.971 15.5011 30.3408 17.2975 29.4104 18.8965C29.9159 19.5423 30.3907 20.2134 30.8326 20.9076L32.0347 19.7069C32.254 19.4877 32.6272 19.5876 32.7075 19.887L33.775 23.8666C33.8555 24.1669 33.5811 24.4425 33.2814 24.3623L29.2976 23.2959C28.9979 23.2157 28.8982 22.84 29.1183 22.6201L30.3334 21.4064C29.721 21.0264 29.0911 20.6721 28.4453 20.3449C28.2327 20.2372 28.0182 20.1324 27.8022 20.0306C24.5608 18.5034 20.9418 17.6499 17.1242 17.6499C13.5517 17.6499 10.1531 18.3973 7.07519 19.7448C6.62799 19.9601 6.13413 20.1288 5.60604 20.2376C3.1007 20.7538 0.773951 19.726 0.409105 17.9421C0.108141 16.4704 1.23622 14.9439 3.0468 14.1647C3.01343 13.9725 2.98387 13.779 2.95822 13.5843C2.87693 13.1337 2.83449 12.6696 2.83449 12.1955C2.83449 9.54222 4.16389 7.20061 6.19059 5.80511C6.10675 5.25387 6.06327 4.6893 6.06327 4.11454C6.06327 2.75344 6.3071 1.44951 6.7533 0.244347C6.8879 -0.119173 7.40541 -0.0603098 7.5199 0.310084C8.01144 1.90035 8.88388 3.3224 10.0302 4.46876C10.2019 4.4573 10.3751 4.45148 10.5497 4.45148C11.8161 4.45148 13.0113 4.75773 14.0656 5.30047C15.0035 5.70742 16.0377 5.93293 17.1244 5.93293C18.1017 5.93293 19.0366 5.75054 19.897 5.41783C21.0037 4.80208 22.2771 4.45148 23.6321 4.45148C23.8334 4.45148 24.0328 4.45922 24.2302 4.4744C25.3792 3.32706 26.2537 1.90295 26.7461 0.310062ZM1.49937 16.943C1.73214 18.0812 3.08106 18.7884 4.63764 18.6615C3.90745 17.3502 3.37689 15.9116 3.08726 14.3872C1.96982 14.9714 1.30112 15.9736 1.49937 16.943ZM17.0909 26C13.0313 26 9.368 24.2969 6.77155 21.5636C9.92902 20.1309 13.4338 19.3334 17.1242 19.3334C20.7964 19.3334 24.2849 20.1231 27.4303 21.5426C24.8326 24.2881 21.161 26 17.0909 26Z" fill="url(#paint0_linear_570_7315)"/>
<path d="M53.7478 19.7455C54.7367 19.7455 55.6707 19.5344 56.5497 19.1123C57.4471 18.6718 58.2254 18.0478 58.8846 17.2402L61.0547 19.3325C60.1574 20.3787 59.0495 21.2046 57.7309 21.8103C56.4307 22.4159 55.0664 22.7188 53.638 22.7188C52.2462 22.7188 50.9368 22.4618 49.7098 21.9479C48.5012 21.434 47.4482 20.7366 46.5508 19.8556C45.6718 18.9563 44.9759 17.901 44.4631 16.6896C43.9504 15.4783 43.694 14.1844 43.694 12.8078C43.694 11.413 43.9504 10.1099 44.4631 8.89852C44.9759 7.68719 45.6718 6.64103 46.5508 5.76006C47.4482 4.86074 48.5012 4.15412 49.7098 3.64022C50.9368 3.12632 52.2462 2.86937 53.638 2.86937C55.103 2.86937 56.4948 3.17221 57.8133 3.77788C59.1502 4.38354 60.2581 5.21863 61.1371 6.28314L58.9121 8.48557C58.2345 7.6413 57.4379 6.98975 56.5223 6.53091C55.6066 6.05372 54.6452 5.81512 53.638 5.81512C52.704 5.81512 51.8341 5.99866 51.0284 6.36573C50.2226 6.71445 49.5267 7.20082 48.9407 7.82484C48.373 8.44886 47.9151 9.19218 47.5672 10.0548C47.2376 10.8991 47.0727 11.8167 47.0727 12.8078C47.0727 13.7806 47.2376 14.6983 47.5672 15.5609C47.9151 16.4051 48.3821 17.1393 48.9681 17.7633C49.5725 18.369 50.2867 18.8553 51.1108 19.2224C51.9349 19.5711 52.8139 19.7455 53.7478 19.7455Z" fill="black"/>
<path d="M118.425 20.6815C117.583 21.379 116.722 21.8929 115.843 22.2232C114.982 22.5536 114.021 22.7188 112.959 22.7188C111.988 22.7188 111.072 22.5352 110.212 22.1682C109.351 21.8011 108.609 21.2964 107.987 20.654C107.364 20.0116 106.869 19.2499 106.503 18.369C106.137 17.488 105.954 16.552 105.954 15.5609C105.954 14.5514 106.119 13.6154 106.448 12.7528C106.796 11.8718 107.263 11.1193 107.849 10.4953C108.454 9.85291 109.168 9.34819 109.992 8.98111C110.816 8.61404 111.704 8.43051 112.656 8.43051C113.59 8.43051 114.451 8.61404 115.239 8.98111C116.044 9.32983 116.731 9.8162 117.299 10.4402C117.885 11.0642 118.343 11.8167 118.672 12.6977C119.002 13.5603 119.167 14.5055 119.167 15.5333V16.3042H109.003C109.149 17.3871 109.607 18.2864 110.376 19.0022C111.164 19.718 112.08 20.0759 113.123 20.0759C113.764 20.0759 114.369 19.9657 114.936 19.7455C115.522 19.5069 116.008 19.1857 116.392 18.7819L118.425 20.6815ZM112.629 10.9633C111.713 10.9633 110.935 11.2753 110.294 11.8993C109.653 12.5234 109.241 13.3584 109.058 14.4046H116.227C116.044 13.3952 115.623 12.5692 114.964 11.9269C114.323 11.2845 113.545 10.9633 112.629 10.9633Z" fill="black"/>
<path d="M126.4 22.6637C124.972 22.6637 123.8 22.2783 122.884 21.5074C121.987 20.7182 121.538 19.7088 121.538 18.4791C121.538 17.2494 122.005 16.2675 122.939 15.5333C123.892 14.7992 125.173 14.4321 126.785 14.4321C127.426 14.4321 128.049 14.5055 128.653 14.6524C129.257 14.7808 129.871 14.9919 130.493 15.2856V13.7714C130.493 12.8721 130.228 12.193 129.697 11.7342C129.166 11.257 128.378 11.0184 127.334 11.0184C126.767 11.0184 126.153 11.1101 125.494 11.2937C124.835 11.4588 124.111 11.725 123.324 12.092L122.225 9.83456C123.251 9.35736 124.23 9.00865 125.164 8.7884C126.098 8.54981 127.023 8.43051 127.939 8.43051C129.715 8.43051 131.098 8.87099 132.087 9.75196C133.075 10.6146 133.57 11.8443 133.57 13.441V22.4435H130.493V21.0394C129.871 21.6084 129.23 22.0213 128.57 22.2783C127.911 22.5352 127.188 22.6637 126.4 22.6637ZM124.45 18.424C124.45 19.0481 124.706 19.5528 125.219 19.9382C125.732 20.3053 126.41 20.4888 127.252 20.4888C127.875 20.4888 128.451 20.397 128.983 20.2135C129.532 20.03 130.036 19.7455 130.493 19.3601V17.1026C129.999 16.864 129.495 16.6988 128.983 16.607C128.47 16.4969 127.911 16.4418 127.307 16.4418C126.428 16.4418 125.732 16.6254 125.219 16.9925C124.706 17.3412 124.45 17.8184 124.45 18.424Z" fill="black"/>
<path d="M147.162 22.4435V20.5989C146.686 21.223 146.072 21.7093 145.322 22.058C144.589 22.4068 143.792 22.5811 142.932 22.5811C142.071 22.5811 141.256 22.3976 140.487 22.0305C139.718 21.6634 139.049 21.1679 138.482 20.5439C137.932 19.9015 137.493 19.1582 137.163 18.3139C136.852 17.4513 136.696 16.5336 136.696 15.5609C136.696 14.5881 136.861 13.6705 137.191 12.8078C137.52 11.9452 137.969 11.2019 138.537 10.5779C139.123 9.95386 139.809 9.45831 140.597 9.09124C141.384 8.72416 142.227 8.54063 143.124 8.54063C143.911 8.54063 144.644 8.70581 145.322 9.03618C146.017 9.34819 146.622 9.78867 147.134 10.3576V2.75925L150.239 2.23618V22.4435H147.162ZM139.773 15.5609C139.773 16.8089 140.166 17.8551 140.954 18.6993C141.741 19.5436 142.712 19.9657 143.866 19.9657C144.525 19.9657 145.129 19.8373 145.679 19.5803C146.246 19.3234 146.732 18.9471 147.134 18.4516V12.6427C146.732 12.1838 146.246 11.8259 145.679 11.569C145.111 11.2937 144.507 11.156 143.866 11.156C142.694 11.156 141.714 11.5781 140.926 12.4224C140.157 13.2483 139.773 14.2945 139.773 15.5609Z" fill="black"/>
<path d="M152.858 20.8467L154.314 18.7544C155.211 19.3234 155.998 19.7271 156.676 19.9657C157.354 20.2043 158.04 20.3236 158.736 20.3236C159.56 20.3236 160.229 20.1584 160.742 19.8281C161.254 19.4794 161.511 19.0297 161.511 18.4791C161.511 18.057 161.355 17.7266 161.044 17.488C160.751 17.231 160.275 17.0383 159.615 16.9099L157.171 16.4969C155.852 16.2583 154.854 15.827 154.176 15.203C153.517 14.5606 153.187 13.7255 153.187 12.6977C153.187 11.413 153.673 10.3852 154.643 9.61431C155.632 8.82511 156.923 8.43051 158.517 8.43051C159.469 8.43051 160.384 8.56816 161.263 8.84346C162.161 9.10041 163.049 9.51337 163.928 10.0823L162.472 12.1196C161.758 11.6607 161.062 11.3304 160.384 11.1285C159.707 10.9082 159.02 10.7981 158.324 10.7981C157.61 10.7981 157.033 10.9449 156.594 11.2386C156.172 11.5139 155.962 11.9085 155.962 12.4224C155.962 12.8629 156.099 13.1933 156.374 13.4135C156.667 13.6337 157.18 13.8081 157.912 13.9366L160.33 14.3771C161.703 14.634 162.719 15.0837 163.379 15.7261C164.056 16.3684 164.395 17.2035 164.395 18.2313C164.395 18.8553 164.248 19.4427 163.955 19.9933C163.681 20.5439 163.287 21.0211 162.774 21.4248C162.28 21.8286 161.685 22.1498 160.989 22.3884C160.311 22.6086 159.579 22.7188 158.791 22.7188C157.601 22.7188 156.493 22.5628 155.467 22.2507C154.46 21.9204 153.59 21.4524 152.858 20.8467Z" fill="black"/>
<path d="M64.0669 22.4435V2.75925L67.1709 2.23618V10.9082C67.6837 10.1007 68.3064 9.48584 69.0389 9.06371C69.7897 8.64157 70.623 8.43051 71.5386 8.43051C72.9304 8.43051 74.0658 8.89852 74.9448 9.83456C75.8422 10.7522 76.2908 11.9269 76.2908 13.3584V22.4435H73.1868V14.2394C73.1868 13.2483 72.9121 12.4499 72.3627 11.8443C71.8133 11.2386 71.0808 10.9358 70.1651 10.9358C69.5425 10.9358 68.9748 11.0826 68.462 11.3763C67.9676 11.6516 67.5372 12.0553 67.1709 12.5876V22.4435H64.0669Z" fill="url(#paint1_linear_570_7315)"/>
<path d="M91.8944 20.6815C91.052 21.379 90.1913 21.8929 89.3122 22.2232C88.4515 22.5536 87.4901 22.7188 86.4279 22.7188C85.4573 22.7188 84.5417 22.5352 83.681 22.1682C82.8203 21.8011 82.0786 21.2964 81.456 20.654C80.8333 20.0116 80.3389 19.2499 79.9726 18.369C79.6063 17.488 79.4232 16.552 79.4232 15.5609C79.4232 14.5514 79.588 13.6154 79.9177 12.7528C80.2656 11.8718 80.7326 11.1193 81.3186 10.4953C81.9229 9.85291 82.6371 9.34819 83.4612 8.98111C84.2853 8.61404 85.1735 8.43051 86.1258 8.43051C87.0597 8.43051 87.9204 8.61404 88.7079 8.98111C89.5137 9.32983 90.2004 9.8162 90.7681 10.4402C91.3541 11.0642 91.812 11.8167 92.1416 12.6977C92.4712 13.5603 92.636 14.5055 92.636 15.5333V16.3042H82.4723C82.6188 17.3871 83.0767 18.2864 83.8458 19.0022C84.6333 19.718 85.5489 20.0759 86.5928 20.0759C87.2337 20.0759 87.838 19.9657 88.4057 19.7455C88.9918 19.5069 89.477 19.1857 89.8616 18.7819L91.8944 20.6815ZM86.0983 10.9633C85.1826 10.9633 84.4043 11.2753 83.7634 11.8993C83.1224 12.5234 82.7104 13.3584 82.5273 14.4046H89.6968C89.5137 13.3952 89.0925 12.5692 88.4332 11.9269C87.7923 11.2845 87.014 10.9633 86.0983 10.9633Z" fill="url(#paint2_linear_570_7315)"/>
<path d="M95.8017 22.4435V8.65075H98.9057V11.6516C99.272 10.6054 99.7756 9.80703 100.417 9.25642C101.076 8.68746 101.836 8.40298 102.697 8.40298C102.953 8.42133 103.182 8.44886 103.383 8.48557C103.585 8.52228 103.804 8.58651 104.043 8.67828V11.4038C103.804 11.2937 103.53 11.2111 103.218 11.156C102.925 11.101 102.632 11.0734 102.339 11.0734C101.607 11.0734 100.938 11.2753 100.334 11.6791C99.7298 12.0829 99.2537 12.6427 98.9057 13.3584V22.4435H95.8017Z" fill="url(#paint3_linear_570_7315)"/>
<defs>
<linearGradient id="paint0_linear_570_7315" x1="10.5452" y1="7.46647" x2="20.6827" y2="25.1412" gradientUnits="userSpaceOnUse">
<stop offset="0.526432" stop-color="#F4511E"/>
<stop offset="1" stop-color="#F41313"/>
</linearGradient>
<linearGradient id="paint1_linear_570_7315" x1="76.2461" y1="8.1182" x2="82.3645" y2="24.3111" gradientUnits="userSpaceOnUse">
<stop offset="0.526432" stop-color="#F4511E"/>
<stop offset="1" stop-color="#EA002A"/>
</linearGradient>
<linearGradient id="paint2_linear_570_7315" x1="76.2461" y1="8.1182" x2="82.3645" y2="24.3111" gradientUnits="userSpaceOnUse">
<stop offset="0.526432" stop-color="#F4511E"/>
<stop offset="1" stop-color="#EA002A"/>
</linearGradient>
<linearGradient id="paint3_linear_570_7315" x1="76.2461" y1="8.1182" x2="82.3645" y2="24.3111" gradientUnits="userSpaceOnUse">
<stop offset="0.526432" stop-color="#F4511E"/>
<stop offset="1" stop-color="#EA002A"/>
</linearGradient>
</defs>
</svg>
